<svg height="486pt" viewBox="-47 0 486 486.51117" width="486pt" xmlns="http://www.w3.org/2000/svg"><path d="m245.695312 254.230469c48.804688-11.898438 99.785157 8.457031 126.976563 50.695312 27.1875 42.242188 24.605469 97.074219-6.4375 136.570313-31.039063 39.496094-83.710937 54.964844-131.179687 38.53125-47.46875-16.4375-79.296876-61.164063-79.269532-111.398438-.328125-54.417968 36.957032-101.855468 89.910156-114.398437zm-32.328124 169.609375 22.628906 22.441406 25.21875-25.042969-22.621094-22.617187zm0 0" fill="#00efd1"/><path d="m261.214844 421.238281-25.21875 25.042969-22.628906-22.441406 25.226562-25.21875zm0 0" fill="#fedb41"/><path d="m142.707031 171.460938c49.472657.078124 92.265625 34.472656 102.988281 82.769531-61.324218 14.949219-99.96875 75.574219-87.640624 137.480469h-157.800782v-114.78125c.101563-58.347657 47.484375-105.570313 105.832032-105.46875zm0 0" fill="#00acea"/><path d="m196.027344 71.808594v.042968c-.003906 39.625-32.117188 71.75-71.742188 71.769532h-.058594c-39.640624.011718-71.789062-32.109375-71.8125-71.75v-.101563c.003907-39.625 32.117188-71.7499998 71.742188-71.769531h.109375c39.625 0 71.75 32.117188 71.761719 71.738281zm0 0" fill="#00acea"/><path d="m202.335938 441.871094c1.855468 0 3.636718-.734375 4.949218-2.050782l83.019532-83.019531c2.734374-2.734375 2.734374-7.167969 0-9.902343-2.734376-2.734376-7.164063-2.734376-9.898438 0l-83.019531 83.023437c-2.003907 2-2.601563 5.011719-1.519531 7.628906 1.085937 2.613281 3.636718 4.320313 6.46875 4.320313zm0 0" fill="#f4b844"/><path d="m309.296875 294.058594c18.695313 0 33.847656 15.15625 33.847656 33.851562 0 18.695313-15.152343 33.851563-33.847656 33.851563s-33.851563-15.15625-33.851563-33.851563c0-18.695312 15.15625-33.851562 33.851563-33.851562zm0 0" fill="#fedb41"/></svg>